# xmcd
#
# Track frame offsets:
#	150
#	23029
#	44403
#	60649
#	78207
#	91365
#	109053
#	131933
#	153307
#	169555
#	187114
#	200271
#
# Disc length: 2906
#
# Revision: 2
# Processed by: cddbd v1.5.1PL0 Copyright (c) Steve Scherf et al.
# Submitted via: audiograbber 1.83.01
# Normalized: r1:DSETVAR1
#
DISCID=990b580c
DTITLE=Various Artist - Chartbuster Karaoke 6+6 Series (vol. 34)
DYEAR=1998
DGENRE=Country
TTITLE0=Steve Wariner - Holes In The Floor Of Heaven (karaoke guide vocals)
TTITLE1=Tim McGraw - One Of These Days (karaoke guide vocals)
TTITLE2=Daryle Singletary - That's Where You're Wrong (karaoke guide vocals)
TTITLE3=Sawyer Brown - Small Talk (karaoke guide vocals)
TTITLE4=Randy Travis - Out Of My Bones (karaoke guide vocals)
TTITLE5=Garth Brooks - Two Pina Coladas (karaoke guide vocals)
TTITLE6=Steve Wariner - Holes In The Floor Of Heaven (karaoke performance track)
TTITLE7=Tim McGraw - One Of These Days (karaoke performance tracks)
TTITLE8=Daryle Singletary - That's Where You're Wrong (karaoke performance tracks)
TTITLE9=Sawyer Brown - Small Talk (karaoke performance tracks)
TTITLE10=Randy Travis - Out Of My Bone (karaoke performance tracks)
TTITLE11=Garth Brooks - Two Pina Coladas (karaoke performance track)
EXTD=
EXTT0=
EXTT1=
EXTT2=
EXTT3=
EXTT4=
EXTT5=
EXTT6=
EXTT7=
EXTT8=
EXTT9=
EXTT10=
EXTT11=
PLAYORDER=
